<svg xmlns="http://www.w3.org/2000/svg" xmlns:xlink="http://www.w3.org/1999/xlink" height="186.0" viewBox="0.0 0.0 251.5 186.0" width="252.0">
<g class="graph" id="graph0" transform="scale(1.0 1.0) rotate(0) translate(4 182)">
<title>G</title>
<polygon fill="white" points="-4,4 -4,-182 247.5,-182 247.5,4 -4,4" stroke="none" />
<g class="cluster" id="clust2"><title>cluster_legend</title>
</g>

<g class="node" id="node1"><title>node0</title>
<svg height="45px" preserveAspectRatio="xMinYMin meet" version="1.1" viewBox="0 0 201.32 60.575625" width="151px" x="4.5" y="-164">
 <defs>
  <style type="text/css">
*{stroke-linecap:butt;stroke-linejoin:round;}
  </style>
 </defs>
 <g id="figure_1">
  <g id="patch_1">
   <path d="M 0 60.575625  L 201.32 60.575625  L 201.32 0  L 0 0  z " style="fill:#ffffff;" />
  </g>
  <g id="axes_1">
   <g id="patch_2">
    <path d="M 17.18 30.219375  L 201.32 30.219375  L 201.32 3.039375  L 17.18 3.039375  z " style="fill:#ffffff;" />
   </g>
   <g id="patch_3">
    <path clip-path="url(#p8cdd747ece)" d="M 19.589027 30.219375  L 29.685684 30.219375  L 29.685684 21.159375  L 19.589027 21.159375  z " style="fill:#fefebb;stroke:#444443;stroke-linejoin:miter;stroke-width:0.5;" />
   </g>
   <g id="patch_4">
    <path clip-path="url(#p8cdd747ece)" d="M 29.685684 30.219375  L 39.782341 30.219375  L 39.782341 3.039375  L 29.685684 3.039375  z " style="fill:#fefebb;stroke:#444443;stroke-linejoin:miter;stroke-width:0.5;" />
   </g>
   <g id="patch_5">
    <path clip-path="url(#p8cdd747ece)" d="M 39.782341 30.219375  L 49.878999 30.219375  L 49.878999 25.689375  L 39.782341 25.689375  z " style="fill:#fefebb;stroke:#444443;stroke-linejoin:miter;stroke-width:0.5;" />
   </g>
   <g id="patch_6">
    <path clip-path="url(#p8cdd747ece)" d="M 49.878999 30.219375  L 59.975656 30.219375  L 59.975656 30.219375  L 49.878999 30.219375  z " style="fill:#fefebb;stroke:#444443;stroke-linejoin:miter;stroke-width:0.5;" />
   </g>
   <g id="patch_7">
    <path clip-path="url(#p8cdd747ece)" d="M 59.975656 30.219375  L 70.072313 30.219375  L 70.072313 30.219375  L 59.975656 30.219375  z " style="fill:#fefebb;stroke:#444443;stroke-linejoin:miter;stroke-width:0.5;" />
   </g>
   <g id="patch_8">
    <path clip-path="url(#p8cdd747ece)" d="M 70.072313 30.219375  L 80.16897 30.219375  L 80.16897 30.219375  L 70.072313 30.219375  z " style="fill:#fefebb;stroke:#444443;stroke-linejoin:miter;stroke-width:0.5;" />
   </g>
   <g id="patch_9">
    <path clip-path="url(#p8cdd747ece)" d="M 80.16897 30.219375  L 90.265627 30.219375  L 90.265627 30.219375  L 80.16897 30.219375  z " style="fill:#fefebb;stroke:#444443;stroke-linejoin:miter;stroke-width:0.5;" />
   </g>
   <g id="patch_10">
    <path clip-path="url(#p8cdd747ece)" d="M 90.265627 30.219375  L 100.362285 30.219375  L 100.362285 30.219375  L 90.265627 30.219375  z " style="fill:#fefebb;stroke:#444443;stroke-linejoin:miter;stroke-width:0.5;" />
   </g>
   <g id="patch_11">
    <path clip-path="url(#p8cdd747ece)" d="M 100.362285 30.219375  L 110.458942 30.219375  L 110.458942 30.219375  L 100.362285 30.219375  z " style="fill:#fefebb;stroke:#444443;stroke-linejoin:miter;stroke-width:0.5;" />
   </g>
   <g id="patch_12">
    <path clip-path="url(#p8cdd747ece)" d="M 110.458942 30.219375  L 120.555599 30.219375  L 120.555599 30.219375  L 110.458942 30.219375  z " style="fill:#fefebb;stroke:#444443;stroke-linejoin:miter;stroke-width:0.5;" />
   </g>
   <g id="patch_13">
    <path clip-path="url(#p8cdd747ece)" d="M 120.555599 30.219375  L 130.652256 30.219375  L 130.652256 30.219375  L 120.555599 30.219375  z " style="fill:#fefebb;stroke:#444443;stroke-linejoin:miter;stroke-width:0.5;" />
   </g>
   <g id="patch_14">
    <path clip-path="url(#p8cdd747ece)" d="M 130.652256 30.219375  L 140.748913 30.219375  L 140.748913 30.219375  L 130.652256 30.219375  z " style="fill:#fefebb;stroke:#444443;stroke-linejoin:miter;stroke-width:0.5;" />
   </g>
   <g id="patch_15">
    <path clip-path="url(#p8cdd747ece)" d="M 140.748913 30.219375  L 150.845571 30.219375  L 150.845571 30.219375  L 140.748913 30.219375  z " style="fill:#fefebb;stroke:#444443;stroke-linejoin:miter;stroke-width:0.5;" />
   </g>
   <g id="patch_16">
    <path clip-path="url(#p8cdd747ece)" d="M 150.845571 30.219375  L 160.942228 30.219375  L 160.942228 30.219375  L 150.845571 30.219375  z " style="fill:#fefebb;stroke:#444443;stroke-linejoin:miter;stroke-width:0.5;" />
   </g>
   <g id="patch_17">
    <path clip-path="url(#p8cdd747ece)" d="M 160.942228 30.219375  L 171.038885 30.219375  L 171.038885 30.219375  L 160.942228 30.219375  z " style="fill:#fefebb;stroke:#444443;stroke-linejoin:miter;stroke-width:0.5;" />
   </g>
   <g id="patch_18">
    <path clip-path="url(#p8cdd747ece)" d="M 171.038885 30.219375  L 181.135542 30.219375  L 181.135542 30.219375  L 171.038885 30.219375  z " style="fill:#fefebb;stroke:#444443;stroke-linejoin:miter;stroke-width:0.5;" />
   </g>
   <g id="patch_19">
    <path clip-path="url(#p8cdd747ece)" d="M 181.135542 30.219375  L 191.2322 30.219375  L 191.2322 30.219375  L 181.135542 30.219375  z " style="fill:#fefebb;stroke:#444443;stroke-linejoin:miter;stroke-width:0.5;" />
   </g>
   <g id="patch_20">
    <path clip-path="url(#p8cdd747ece)" d="M 19.589027 21.159375  L 29.685684 21.159375  L 29.685684 21.159375  L 19.589027 21.159375  z " style="fill:#d9e6f5;stroke:#444443;stroke-linejoin:miter;stroke-width:0.5;" />
   </g>
   <g id="patch_21">
    <path clip-path="url(#p8cdd747ece)" d="M 29.685684 3.039375  L 39.782341 3.039375  L 39.782341 3.039375  L 29.685684 3.039375  z " style="fill:#d9e6f5;stroke:#444443;stroke-linejoin:miter;stroke-width:0.5;" />
   </g>
   <g id="patch_22">
    <path clip-path="url(#p8cdd747ece)" d="M 39.782341 25.689375  L 49.878999 25.689375  L 49.878999 25.689375  L 39.782341 25.689375  z " style="fill:#d9e6f5;stroke:#444443;stroke-linejoin:miter;stroke-width:0.5;" />
   </g>
   <g id="patch_23">
    <path clip-path="url(#p8cdd747ece)" d="M 49.878999 30.219375  L 59.975656 30.219375  L 59.975656 30.219375  L 49.878999 30.219375  z " style="fill:#d9e6f5;stroke:#444443;stroke-linejoin:miter;stroke-width:0.5;" />
   </g>
   <g id="patch_24">
    <path clip-path="url(#p8cdd747ece)" d="M 59.975656 30.219375  L 70.072313 30.219375  L 70.072313 30.219375  L 59.975656 30.219375  z " style="fill:#d9e6f5;stroke:#444443;stroke-linejoin:miter;stroke-width:0.5;" />
   </g>
   <g id="patch_25">
    <path clip-path="url(#p8cdd747ece)" d="M 70.072313 30.219375  L 80.16897 30.219375  L 80.16897 29.086875  L 70.072313 29.086875  z " style="fill:#d9e6f5;stroke:#444443;stroke-linejoin:miter;stroke-width:0.5;" />
   </g>
   <g id="patch_26">
    <path clip-path="url(#p8cdd747ece)" d="M 80.16897 30.219375  L 90.265627 30.219375  L 90.265627 27.954375  L 80.16897 27.954375  z " style="fill:#d9e6f5;stroke:#444443;stroke-linejoin:miter;stroke-width:0.5;" />
   </g>
   <g id="patch_27">
    <path clip-path="url(#p8cdd747ece)" d="M 90.265627 30.219375  L 100.362285 30.219375  L 100.362285 26.821875  L 90.265627 26.821875  z " style="fill:#d9e6f5;stroke:#444443;stroke-linejoin:miter;stroke-width:0.5;" />
   </g>
   <g id="patch_28">
    <path clip-path="url(#p8cdd747ece)" d="M 100.362285 30.219375  L 110.458942 30.219375  L 110.458942 22.291875  L 100.362285 22.291875  z " style="fill:#d9e6f5;stroke:#444443;stroke-linejoin:miter;stroke-width:0.5;" />
   </g>
   <g id="patch_29">
    <path clip-path="url(#p8cdd747ece)" d="M 110.458942 30.219375  L 120.555599 30.219375  L 120.555599 23.424375  L 110.458942 23.424375  z " style="fill:#d9e6f5;stroke:#444443;stroke-linejoin:miter;stroke-width:0.5;" />
   </g>
   <g id="patch_30">
    <path clip-path="url(#p8cdd747ece)" d="M 120.555599 30.219375  L 130.652256 30.219375  L 130.652256 17.761875  L 120.555599 17.761875  z " style="fill:#d9e6f5;stroke:#444443;stroke-linejoin:miter;stroke-width:0.5;" />
   </g>
   <g id="patch_31">
    <path clip-path="url(#p8cdd747ece)" d="M 130.652256 30.219375  L 140.748913 30.219375  L 140.748913 25.689375  L 130.652256 25.689375  z " style="fill:#d9e6f5;stroke:#444443;stroke-linejoin:miter;stroke-width:0.5;" />
   </g>
   <g id="patch_32">
    <path clip-path="url(#p8cdd747ece)" d="M 140.748913 30.219375  L 150.845571 30.219375  L 150.845571 29.086875  L 140.748913 29.086875  z " style="fill:#d9e6f5;stroke:#444443;stroke-linejoin:miter;stroke-width:0.5;" />
   </g>
   <g id="patch_33">
    <path clip-path="url(#p8cdd747ece)" d="M 150.845571 30.219375  L 160.942228 30.219375  L 160.942228 30.219375  L 150.845571 30.219375  z " style="fill:#d9e6f5;stroke:#444443;stroke-linejoin:miter;stroke-width:0.5;" />
   </g>
   <g id="patch_34">
    <path clip-path="url(#p8cdd747ece)" d="M 160.942228 30.219375  L 171.038885 30.219375  L 171.038885 30.219375  L 160.942228 30.219375  z " style="fill:#d9e6f5;stroke:#444443;stroke-linejoin:miter;stroke-width:0.5;" />
   </g>
   <g id="patch_35">
    <path clip-path="url(#p8cdd747ece)" d="M 171.038885 30.219375  L 181.135542 30.219375  L 181.135542 30.219375  L 171.038885 30.219375  z " style="fill:#d9e6f5;stroke:#444443;stroke-linejoin:miter;stroke-width:0.5;" />
   </g>
   <g id="patch_36">
    <path clip-path="url(#p8cdd747ece)" d="M 181.135542 30.219375  L 191.2322 30.219375  L 191.2322 30.219375  L 181.135542 30.219375  z " style="fill:#d9e6f5;stroke:#444443;stroke-linejoin:miter;stroke-width:0.5;" />
   </g>
   <g id="patch_37">
    <path clip-path="url(#p8cdd747ece)" d="M 19.589027 21.159375  L 29.685684 21.159375  L 29.685684 21.159375  L 19.589027 21.159375  z " style="fill:#a1dab4;stroke:#444443;stroke-linejoin:miter;stroke-width:0.5;" />
   </g>
   <g id="patch_38">
    <path clip-path="url(#p8cdd747ece)" d="M 29.685684 3.039375  L 39.782341 3.039375  L 39.782341 3.039375  L 29.685684 3.039375  z " style="fill:#a1dab4;stroke:#444443;stroke-linejoin:miter;stroke-width:0.5;" />
   </g>
   <g id="patch_39">
    <path clip-path="url(#p8cdd747ece)" d="M 39.782341 25.689375  L 49.878999 25.689375  L 49.878999 25.689375  L 39.782341 25.689375  z " style="fill:#a1dab4;stroke:#444443;stroke-linejoin:miter;stroke-width:0.5;" />
   </g>
   <g id="patch_40">
    <path clip-path="url(#p8cdd747ece)" d="M 49.878999 30.219375  L 59.975656 30.219375  L 59.975656 30.219375  L 49.878999 30.219375  z " style="fill:#a1dab4;stroke:#444443;stroke-linejoin:miter;stroke-width:0.5;" />
   </g>
   <g id="patch_41">
    <path clip-path="url(#p8cdd747ece)" d="M 59.975656 30.219375  L 70.072313 30.219375  L 70.072313 30.219375  L 59.975656 30.219375  z " style="fill:#a1dab4;stroke:#444443;stroke-linejoin:miter;stroke-width:0.5;" />
   </g>
   <g id="patch_42">
    <path clip-path="url(#p8cdd747ece)" d="M 70.072313 29.086875  L 80.16897 29.086875  L 80.16897 29.086875  L 70.072313 29.086875  z " style="fill:#a1dab4;stroke:#444443;stroke-linejoin:miter;stroke-width:0.5;" />
   </g>
   <g id="patch_43">
    <path clip-path="url(#p8cdd747ece)" d="M 80.16897 27.954375  L 90.265627 27.954375  L 90.265627 27.954375  L 80.16897 27.954375  z " style="fill:#a1dab4;stroke:#444443;stroke-linejoin:miter;stroke-width:0.5;" />
   </g>
   <g id="patch_44">
    <path clip-path="url(#p8cdd747ece)" d="M 90.265627 26.821875  L 100.362285 26.821875  L 100.362285 26.821875  L 90.265627 26.821875  z " style="fill:#a1dab4;stroke:#444443;stroke-linejoin:miter;stroke-width:0.5;" />
   </g>
   <g id="patch_45">
    <path clip-path="url(#p8cdd747ece)" d="M 100.362285 22.291875  L 110.458942 22.291875  L 110.458942 22.291875  L 100.362285 22.291875  z " style="fill:#a1dab4;stroke:#444443;stroke-linejoin:miter;stroke-width:0.5;" />
   </g>
   <g id="patch_46">
    <path clip-path="url(#p8cdd747ece)" d="M 110.458942 23.424375  L 120.555599 23.424375  L 120.555599 23.424375  L 110.458942 23.424375  z " style="fill:#a1dab4;stroke:#444443;stroke-linejoin:miter;stroke-width:0.5;" />
   </g>
   <g id="patch_47">
    <path clip-path="url(#p8cdd747ece)" d="M 120.555599 17.761875  L 130.652256 17.761875  L 130.652256 16.629375  L 120.555599 16.629375  z " style="fill:#a1dab4;stroke:#444443;stroke-linejoin:miter;stroke-width:0.5;" />
   </g>
   <g id="patch_48">
    <path clip-path="url(#p8cdd747ece)" d="M 130.652256 25.689375  L 140.748913 25.689375  L 140.748913 18.894375  L 130.652256 18.894375  z " style="fill:#a1dab4;stroke:#444443;stroke-linejoin:miter;stroke-width:0.5;" />
   </g>
   <g id="patch_49">
    <path clip-path="url(#p8cdd747ece)" d="M 140.748913 29.086875  L 150.845571 29.086875  L 150.845571 20.026875  L 140.748913 20.026875  z " style="fill:#a1dab4;stroke:#444443;stroke-linejoin:miter;stroke-width:0.5;" />
   </g>
   <g id="patch_50">
    <path clip-path="url(#p8cdd747ece)" d="M 150.845571 30.219375  L 160.942228 30.219375  L 160.942228 21.159375  L 150.845571 21.159375  z " style="fill:#a1dab4;stroke:#444443;stroke-linejoin:miter;stroke-width:0.5;" />
   </g>
   <g id="patch_51">
    <path clip-path="url(#p8cdd747ece)" d="M 160.942228 30.219375  L 171.038885 30.219375  L 171.038885 20.026875  L 160.942228 20.026875  z " style="fill:#a1dab4;stroke:#444443;stroke-linejoin:miter;stroke-width:0.5;" />
   </g>
   <g id="patch_52">
    <path clip-path="url(#p8cdd747ece)" d="M 171.038885 30.219375  L 181.135542 30.219375  L 181.135542 26.821875  L 171.038885 26.821875  z " style="fill:#a1dab4;stroke:#444443;stroke-linejoin:miter;stroke-width:0.5;" />
   </g>
   <g id="patch_53">
    <path clip-path="url(#p8cdd747ece)" d="M 181.135542 30.219375  L 191.2322 30.219375  L 191.2322 27.954375  L 181.135542 27.954375  z " style="fill:#a1dab4;stroke:#444443;stroke-linejoin:miter;stroke-width:0.5;" />
   </g>
   <g id="patch_54">
    <path d="M 63.252641 31.034775  L 59.938121 38.373375  L 66.567161 38.373375  z " style="fill:#444443;" />
   </g>
   <g id="matplotlib.axis_1">
    <g id="xtick_1">
     <g id="line2d_1">
      <defs>
       <path d="M 0 0  L 0 3.5  " id="m1880309819" style="stroke:#000000;stroke-width:0.3;" />
      </defs>
      <g>
       <use style="stroke:#000000;stroke-width:0.3;" x="19.589027" y="30.219375" xlink:href="#m1880309819" />
      </g>
     </g>
     <g id="text_1">
      
      <defs>
       <path d="M 12.40625 8.296875  L 28.515625 8.296875  L 28.515625 63.921875  L 10.984375 60.40625  L 10.984375 69.390625  L 28.421875 72.90625  L 38.28125 72.90625  L 38.28125 8.296875  L 54.390625 8.296875  L 54.390625 0  L 12.40625 0  z " id="DejaVuSans-49" />
       <path d="M 10.6875 12.40625  L 21 12.40625  L 21 0  L 10.6875 0  z " id="DejaVuSans-46" />
       <path d="M 31.78125 66.40625  Q 24.171875 66.40625 20.328125 58.90625  Q 16.5 51.421875 16.5 36.375  Q 16.5 21.390625 20.328125 13.890625  Q 24.171875 6.390625 31.78125 6.390625  Q 39.453125 6.390625 43.28125 13.890625  Q 47.125 21.390625 47.125 36.375  Q 47.125 51.421875 43.28125 58.90625  Q 39.453125 66.40625 31.78125 66.40625  z M 31.78125 74.21875  Q 44.046875 74.21875 50.515625 64.515625  Q 56.984375 54.828125 56.984375 36.375  Q 56.984375 17.96875 50.515625 8.265625  Q 44.046875 -1.421875 31.78125 -1.421875  Q 19.53125 -1.421875 13.0625 8.265625  Q 6.59375 17.96875 6.59375 36.375  Q 6.59375 54.828125 13.0625 64.515625  Q 19.53125 74.21875 31.78125 74.21875  z " id="DejaVuSans-48" />
      </defs>
      <g style="fill:#444443;" transform="translate(13.227777 43.298125)scale(0.08 -0.08)">
       <use xlink:href="#DejaVuSans-49" />
       <use x="63.623047" xlink:href="#DejaVuSans-46" />
       <use x="95.410156" xlink:href="#DejaVuSans-48" />
      </g>
     </g>
    </g>
    <g id="xtick_2">
     <g id="line2d_2">
      <g>
       <use style="stroke:#000000;stroke-width:0.3;" x="191.2322" y="30.219375" xlink:href="#m1880309819" />
      </g>
     </g>
     <g id="text_2">
      
      <defs>
       <path d="M 33.015625 40.375  Q 26.375 40.375 22.484375 35.828125  Q 18.609375 31.296875 18.609375 23.390625  Q 18.609375 15.53125 22.484375 10.953125  Q 26.375 6.390625 33.015625 6.390625  Q 39.65625 6.390625 43.53125 10.953125  Q 47.40625 15.53125 47.40625 23.390625  Q 47.40625 31.296875 43.53125 35.828125  Q 39.65625 40.375 33.015625 40.375  z M 52.59375 71.296875  L 52.59375 62.3125  Q 48.875 64.0625 45.09375 64.984375  Q 41.3125 65.921875 37.59375 65.921875  Q 27.828125 65.921875 22.671875 59.328125  Q 17.53125 52.734375 16.796875 39.40625  Q 19.671875 43.65625 24.015625 45.921875  Q 28.375 48.1875 33.59375 48.1875  Q 44.578125 48.1875 50.953125 41.515625  Q 57.328125 34.859375 57.328125 23.390625  Q 57.328125 12.15625 50.6875 5.359375  Q 44.046875 -1.421875 33.015625 -1.421875  Q 20.359375 -1.421875 13.671875 8.265625  Q 6.984375 17.96875 6.984375 36.375  Q 6.984375 53.65625 15.1875 63.9375  Q 23.390625 74.21875 37.203125 74.21875  Q 40.921875 74.21875 44.703125 73.484375  Q 48.484375 72.75 52.59375 71.296875  z " id="DejaVuSans-54" />
       <path d="M 8.203125 72.90625  L 55.078125 72.90625  L 55.078125 68.703125  L 28.609375 0  L 18.3125 0  L 43.21875 64.59375  L 8.203125 64.59375  z " id="DejaVuSans-55" />
      </defs>
      <g style="fill:#444443;" transform="translate(184.87095 43.298125)scale(0.08 -0.08)">
       <use xlink:href="#DejaVuSans-54" />
       <use x="63.623047" xlink:href="#DejaVuSans-46" />
       <use x="95.410156" xlink:href="#DejaVuSans-55" />
      </g>
     </g>
    </g>
    <g id="text_3">
     
     <defs>
      <path d="M 18.109375 8.203125  L 18.109375 -20.796875  L 9.078125 -20.796875  L 9.078125 54.6875  L 18.109375 54.6875  L 18.109375 46.390625  Q 20.953125 51.265625 25.265625 53.625  Q 29.59375 56 35.59375 56  Q 45.5625 56 51.78125 48.09375  Q 58.015625 40.1875 58.015625 27.296875  Q 58.015625 14.40625 51.78125 6.484375  Q 45.5625 -1.421875 35.59375 -1.421875  Q 29.59375 -1.421875 25.265625 0.953125  Q 20.953125 3.328125 18.109375 8.203125  z M 48.6875 27.296875  Q 48.6875 37.203125 44.609375 42.84375  Q 40.53125 48.484375 33.40625 48.484375  Q 26.265625 48.484375 22.1875 42.84375  Q 18.109375 37.203125 18.109375 27.296875  Q 18.109375 17.390625 22.1875 11.75  Q 26.265625 6.109375 33.40625 6.109375  Q 40.53125 6.109375 44.609375 11.75  Q 48.6875 17.390625 48.6875 27.296875  z " id="DejaVuSans-112" />
      <path d="M 56.203125 29.59375  L 56.203125 25.203125  L 14.890625 25.203125  Q 15.484375 15.921875 20.484375 11.0625  Q 25.484375 6.203125 34.421875 6.203125  Q 39.59375 6.203125 44.453125 7.46875  Q 49.3125 8.734375 54.109375 11.28125  L 54.109375 2.78125  Q 49.265625 0.734375 44.1875 -0.34375  Q 39.109375 -1.421875 33.890625 -1.421875  Q 20.796875 -1.421875 13.15625 6.1875  Q 5.515625 13.8125 5.515625 26.8125  Q 5.515625 40.234375 12.765625 48.109375  Q 20.015625 56 32.328125 56  Q 43.359375 56 49.78125 48.890625  Q 56.203125 41.796875 56.203125 29.59375  z M 47.21875 32.234375  Q 47.125 39.59375 43.09375 43.984375  Q 39.0625 48.390625 32.421875 48.390625  Q 24.90625 48.390625 20.390625 44.140625  Q 15.875 39.890625 15.1875 32.171875  z " id="DejaVuSans-101" />
      <path d="M 18.3125 70.21875  L 18.3125 54.6875  L 36.8125 54.6875  L 36.8125 47.703125  L 18.3125 47.703125  L 18.3125 18.015625  Q 18.3125 11.328125 20.140625 9.421875  Q 21.96875 7.515625 27.59375 7.515625  L 36.8125 7.515625  L 36.8125 0  L 27.59375 0  Q 17.1875 0 13.234375 3.875  Q 9.28125 7.765625 9.28125 18.015625  L 9.28125 47.703125  L 2.6875 47.703125  L 2.6875 54.6875  L 9.28125 54.6875  L 9.28125 70.21875  z " id="DejaVuSans-116" />
      <path d="M 34.28125 27.484375  Q 23.390625 27.484375 19.1875 25  Q 14.984375 22.515625 14.984375 16.5  Q 14.984375 11.71875 18.140625 8.90625  Q 21.296875 6.109375 26.703125 6.109375  Q 34.1875 6.109375 38.703125 11.40625  Q 43.21875 16.703125 43.21875 25.484375  L 43.21875 27.484375  z M 52.203125 31.203125  L 52.203125 0  L 43.21875 0  L 43.21875 8.296875  Q 40.140625 3.328125 35.546875 0.953125  Q 30.953125 -1.421875 24.3125 -1.421875  Q 15.921875 -1.421875 10.953125 3.296875  Q 6 8.015625 6 15.921875  Q 6 25.140625 12.171875 29.828125  Q 18.359375 34.515625 30.609375 34.515625  L 43.21875 34.515625  L 43.21875 35.40625  Q 43.21875 41.609375 39.140625 45  Q 35.0625 48.390625 27.6875 48.390625  Q 23 48.390625 18.546875 47.265625  Q 14.109375 46.140625 10.015625 43.890625  L 10.015625 52.203125  Q 14.9375 54.109375 19.578125 55.046875  Q 24.21875 56 28.609375 56  Q 40.484375 56 46.34375 49.84375  Q 52.203125 43.703125 52.203125 31.203125  z " id="DejaVuSans-97" />
      <path d="M 9.421875 75.984375  L 18.40625 75.984375  L 18.40625 0  L 9.421875 0  z " id="DejaVuSans-108" />
      <path id="DejaVuSans-32" />
      <path d="M 54.890625 33.015625  L 54.890625 0  L 45.90625 0  L 45.90625 32.71875  Q 45.90625 40.484375 42.875 44.328125  Q 39.84375 48.1875 33.796875 48.1875  Q 26.515625 48.1875 22.3125 43.546875  Q 18.109375 38.921875 18.109375 30.90625  L 18.109375 0  L 9.078125 0  L 9.078125 54.6875  L 18.109375 54.6875  L 18.109375 46.1875  Q 21.34375 51.125 25.703125 53.5625  Q 30.078125 56 35.796875 56  Q 45.21875 56 50.046875 50.171875  Q 54.890625 44.34375 54.890625 33.015625  z " id="DejaVuSans-110" />
      <path d="M 45.40625 27.984375  Q 45.40625 37.75 41.375 43.109375  Q 37.359375 48.484375 30.078125 48.484375  Q 22.859375 48.484375 18.828125 43.109375  Q 14.796875 37.75 14.796875 27.984375  Q 14.796875 18.265625 18.828125 12.890625  Q 22.859375 7.515625 30.078125 7.515625  Q 37.359375 7.515625 41.375 12.890625  Q 45.40625 18.265625 45.40625 27.984375  z M 54.390625 6.78125  Q 54.390625 -7.171875 48.1875 -13.984375  Q 42 -20.796875 29.203125 -20.796875  Q 24.46875 -20.796875 20.265625 -20.09375  Q 16.0625 -19.390625 12.109375 -17.921875  L 12.109375 -9.1875  Q 16.0625 -11.328125 19.921875 -12.34375  Q 23.78125 -13.375 27.78125 -13.375  Q 36.625 -13.375 41.015625 -8.765625  Q 45.40625 -4.15625 45.40625 5.171875  L 45.40625 9.625  Q 42.625 4.78125 38.28125 2.390625  Q 33.9375 0 27.875 0  Q 17.828125 0 11.671875 7.65625  Q 5.515625 15.328125 5.515625 27.984375  Q 5.515625 40.671875 11.671875 48.328125  Q 17.828125 56 27.875 56  Q 33.9375 56 38.28125 53.609375  Q 42.625 51.21875 45.40625 46.390625  L 45.40625 54.6875  L 54.390625 54.6875  z " id="DejaVuSans-103" />
      <path d="M 54.890625 33.015625  L 54.890625 0  L 45.90625 0  L 45.90625 32.71875  Q 45.90625 40.484375 42.875 44.328125  Q 39.84375 48.1875 33.796875 48.1875  Q 26.515625 48.1875 22.3125 43.546875  Q 18.109375 38.921875 18.109375 30.90625  L 18.109375 0  L 9.078125 0  L 9.078125 75.984375  L 18.109375 75.984375  L 18.109375 46.1875  Q 21.34375 51.125 25.703125 53.5625  Q 30.078125 56 35.796875 56  Q 45.21875 56 50.046875 50.171875  Q 54.890625 44.34375 54.890625 33.015625  z " id="DejaVuSans-104" />
      <path d="M 31 75.875  Q 24.46875 64.65625 21.28125 53.65625  Q 18.109375 42.671875 18.109375 31.390625  Q 18.109375 20.125 21.3125 9.0625  Q 24.515625 -2 31 -13.1875  L 23.1875 -13.1875  Q 15.875 -1.703125 12.234375 9.375  Q 8.59375 20.453125 8.59375 31.390625  Q 8.59375 42.28125 12.203125 53.3125  Q 15.828125 64.359375 23.1875 75.875  z " id="DejaVuSans-40" />
      <path d="M 48.78125 52.59375  L 48.78125 44.1875  Q 44.96875 46.296875 41.140625 47.34375  Q 37.3125 48.390625 33.40625 48.390625  Q 24.65625 48.390625 19.8125 42.84375  Q 14.984375 37.3125 14.984375 27.296875  Q 14.984375 17.28125 19.8125 11.734375  Q 24.65625 6.203125 33.40625 6.203125  Q 37.3125 6.203125 41.140625 7.25  Q 44.96875 8.296875 48.78125 10.40625  L 48.78125 2.09375  Q 45.015625 0.34375 40.984375 -0.53125  Q 36.96875 -1.421875 32.421875 -1.421875  Q 20.0625 -1.421875 12.78125 6.34375  Q 5.515625 14.109375 5.515625 27.296875  Q 5.515625 40.671875 12.859375 48.328125  Q 20.21875 56 33.015625 56  Q 37.15625 56 41.109375 55.140625  Q 45.0625 54.296875 48.78125 52.59375  z " id="DejaVuSans-99" />
      <path d="M 52 44.1875  Q 55.375 50.25 60.0625 53.125  Q 64.75 56 71.09375 56  Q 79.640625 56 84.28125 50.015625  Q 88.921875 44.046875 88.921875 33.015625  L 88.921875 0  L 79.890625 0  L 79.890625 32.71875  Q 79.890625 40.578125 77.09375 44.375  Q 74.3125 48.1875 68.609375 48.1875  Q 61.625 48.1875 57.5625 43.546875  Q 53.515625 38.921875 53.515625 30.90625  L 53.515625 0  L 44.484375 0  L 44.484375 32.71875  Q 44.484375 40.625 41.703125 44.40625  Q 38.921875 48.1875 33.109375 48.1875  Q 26.21875 48.1875 22.15625 43.53125  Q 18.109375 38.875 18.109375 30.90625  L 18.109375 0  L 9.078125 0  L 9.078125 54.6875  L 18.109375 54.6875  L 18.109375 46.1875  Q 21.1875 51.21875 25.484375 53.609375  Q 29.78125 56 35.6875 56  Q 41.65625 56 45.828125 52.96875  Q 50 49.953125 52 44.1875  z " id="DejaVuSans-109" />
      <path d="M 8.015625 75.875  L 15.828125 75.875  Q 23.140625 64.359375 26.78125 53.3125  Q 30.421875 42.28125 30.421875 31.390625  Q 30.421875 20.453125 26.78125 9.375  Q 23.140625 -1.703125 15.828125 -13.1875  L 8.015625 -13.1875  Q 14.5 -2 17.703125 9.0625  Q 20.90625 20.125 20.90625 31.390625  Q 20.90625 42.671875 17.703125 53.65625  Q 14.5 64.65625 8.015625 75.875  z " id="DejaVuSans-41" />
     </defs>
     <g style="fill:#444443;" transform="translate(57.289062 58.08)scale(0.12 -0.12)">
      <use xlink:href="#DejaVuSans-112" />
      <use x="63.476562" xlink:href="#DejaVuSans-101" />
      <use x="125" xlink:href="#DejaVuSans-116" />
      <use x="164.208984" xlink:href="#DejaVuSans-97" />
      <use x="225.488281" xlink:href="#DejaVuSans-108" />
      <use x="253.271484" xlink:href="#DejaVuSans-32" />
      <use x="285.058594" xlink:href="#DejaVuSans-108" />
      <use x="312.841797" xlink:href="#DejaVuSans-101" />
      <use x="374.365234" xlink:href="#DejaVuSans-110" />
      <use x="437.744141" xlink:href="#DejaVuSans-103" />
      <use x="501.220703" xlink:href="#DejaVuSans-116" />
      <use x="540.429688" xlink:href="#DejaVuSans-104" />
      <use x="603.808594" xlink:href="#DejaVuSans-32" />
      <use x="635.595703" xlink:href="#DejaVuSans-40" />
      <use x="674.609375" xlink:href="#DejaVuSans-99" />
      <use x="729.589844" xlink:href="#DejaVuSans-109" />
      <use x="827.001953" xlink:href="#DejaVuSans-41" />
     </g>
    </g>
   </g>
   <g id="matplotlib.axis_2">
    <g id="ytick_1">
     <g id="line2d_3">
      <defs>
       <path d="M 0 0  L -3.5 0  " id="me9d334695b" style="stroke:#000000;stroke-width:0.3;" />
      </defs>
      <g>
       <use style="stroke:#000000;stroke-width:0.3;" x="17.18" y="30.219375" xlink:href="#me9d334695b" />
      </g>
     </g>
     <g id="text_4">
      
      <g style="fill:#444443;" transform="translate(5.09 33.25875)scale(0.08 -0.08)">
       <use xlink:href="#DejaVuSans-48" />
      </g>
     </g>
    </g>
    <g id="ytick_2">
     <g id="line2d_4">
      <g>
       <use style="stroke:#000000;stroke-width:0.3;" x="17.18" y="3.039375" xlink:href="#me9d334695b" />
      </g>
     </g>
     <g id="text_5">
      
      <defs>
       <path d="M 19.1875 8.296875  L 53.609375 8.296875  L 53.609375 0  L 7.328125 0  L 7.328125 8.296875  Q 12.9375 14.109375 22.625 23.890625  Q 32.328125 33.6875 34.8125 36.53125  Q 39.546875 41.84375 41.421875 45.53125  Q 43.3125 49.21875 43.3125 52.78125  Q 43.3125 58.59375 39.234375 62.25  Q 35.15625 65.921875 28.609375 65.921875  Q 23.96875 65.921875 18.8125 64.3125  Q 13.671875 62.703125 7.8125 59.421875  L 7.8125 69.390625  Q 13.765625 71.78125 18.9375 73  Q 24.125 74.21875 28.421875 74.21875  Q 39.75 74.21875 46.484375 68.546875  Q 53.21875 62.890625 53.21875 53.421875  Q 53.21875 48.921875 51.53125 44.890625  Q 49.859375 40.875 45.40625 35.40625  Q 44.1875 33.984375 37.640625 27.21875  Q 31.109375 20.453125 19.1875 8.296875  z " id="DejaVuSans-50" />
       <path d="M 37.796875 64.3125  L 12.890625 25.390625  L 37.796875 25.390625  z M 35.203125 72.90625  L 47.609375 72.90625  L 47.609375 25.390625  L 58.015625 25.390625  L 58.015625 17.1875  L 47.609375 17.1875  L 47.609375 0  L 37.796875 0  L 37.796875 17.1875  L 4.890625 17.1875  L 4.890625 26.703125  z " id="DejaVuSans-52" />
      </defs>
      <g style="fill:#444443;" transform="translate(0 6.07875)scale(0.08 -0.08)">
       <use xlink:href="#DejaVuSans-50" />
       <use x="63.623047" xlink:href="#DejaVuSans-52" />
      </g>
     </g>
    </g>
   </g>
   <g id="patch_55">
    <path d="M 17.18 30.219375  L 17.18 3.039375  " style="fill:none;stroke:#000000;stroke-linecap:square;stroke-linejoin:miter;stroke-width:0.3;" />
   </g>
   <g id="patch_56">
    <path d="M 17.18 30.219375  L 201.32 30.219375  " style="fill:none;stroke:#000000;stroke-linecap:square;stroke-linejoin:miter;stroke-width:0.3;" />
   </g>
   <g id="text_6">
    
    <defs>
     <path d="M 10.796875 72.90625  L 49.515625 72.90625  L 49.515625 64.59375  L 19.828125 64.59375  L 19.828125 46.734375  Q 21.96875 47.46875 24.109375 47.828125  Q 26.265625 48.1875 28.421875 48.1875  Q 40.625 48.1875 47.75 41.5  Q 54.890625 34.8125 54.890625 23.390625  Q 54.890625 11.625 47.5625 5.09375  Q 40.234375 -1.421875 26.90625 -1.421875  Q 22.3125 -1.421875 17.546875 -0.640625  Q 12.796875 0.140625 7.71875 1.703125  L 7.71875 11.625  Q 12.109375 9.234375 16.796875 8.0625  Q 21.484375 6.890625 26.703125 6.890625  Q 35.15625 6.890625 40.078125 11.328125  Q 45.015625 15.765625 45.015625 23.390625  Q 45.015625 31 40.078125 35.4375  Q 35.15625 39.890625 26.703125 39.890625  Q 22.75 39.890625 18.8125 39.015625  Q 14.890625 38.140625 10.796875 36.28125  z " id="DejaVuSans-53" />
    </defs>
    <g style="fill:#444443;" transform="translate(54.346391 46.527375)scale(0.08 -0.08)">
     <use xlink:href="#DejaVuSans-50" />
     <use x="63.623047" xlink:href="#DejaVuSans-46" />
     <use x="95.410156" xlink:href="#DejaVuSans-52" />
     <use x="159.033203" xlink:href="#DejaVuSans-53" />
    </g>
   </g>
  </g>
 </g>
 <defs>
  <clipPath id="p8cdd747ece">
   <rect height="27.18" width="184.14" x="17.18" y="3.039375" />
  </clipPath>
 </defs>
</svg></g>

<g class="node" id="node2"><title>leaf1</title>
<polygon fill="none" points="81,-73 34,-73 34,-10 81,-10 81,-73" stroke="#444443" stroke-width="0" />
<svg height="55px" preserveAspectRatio="xMinYMin meet" version="1.1" viewBox="0 0 52.548 73.438264" width="39px" x="38.5" y="-68.5">
 <defs>
  <style type="text/css">
*{stroke-linecap:butt;stroke-linejoin:round;}
  </style>
 </defs>
 <g id="figure_1">
  <g id="patch_1">
   <path d="M 0 73.438264  L 52.548 73.438264  L 52.548 0  L 0 0  z " style="fill:#ffffff;" />
  </g>
  <g id="axes_1">
   <g id="patch_2">
    <path d="M 52.548 26.274  C 52.548 22.82373 51.868372 19.407009 50.548011 16.219375  C 49.22765 13.031742 47.292233 10.135186 44.852524 7.695476  C 42.412814 5.255767 39.516258 3.32035 36.328625 1.999989  C 33.140991 0.679628 29.72427 0 26.274 0  C 22.82373 0 19.407009 0.679628 16.219375 1.999989  C 13.031742 3.32035 10.135186 5.255767 7.695476 7.695476  C 5.255767 10.135186 3.32035 13.031742 1.999989 16.219375  C 0.679628 19.407009 0 22.82373 0 26.274  C 0 29.72427 0.679628 33.140991 1.999989 36.328625  C 3.32035 39.516258 5.255767 42.412814 7.695476 44.852524  C 10.135186 47.292233 13.031742 49.22765 16.219375 50.548011  C 19.407009 51.868372 22.82373 52.548 26.274 52.548  C 29.72427 52.548 33.140991 51.868372 36.328625 50.548011  C 39.516258 49.22765 42.412814 47.292233 44.852524 44.852524  C 47.292233 42.412814 49.22765 39.516258 50.548011 36.328625  C 51.868372 33.140991 52.548 29.72427 52.548 26.274  M 26.274 26.274  M 52.548 26.274  z " style="fill:#fefebb;stroke:#444443;stroke-linejoin:miter;stroke-width:0.5;" />
   </g>
   <g id="text_1">
    
    <defs>
     <path d="M 54.890625 33.015625  L 54.890625 0  L 45.90625 0  L 45.90625 32.71875  Q 45.90625 40.484375 42.875 44.328125  Q 39.84375 48.1875 33.796875 48.1875  Q 26.515625 48.1875 22.3125 43.546875  Q 18.109375 38.921875 18.109375 30.90625  L 18.109375 0  L 9.078125 0  L 9.078125 54.6875  L 18.109375 54.6875  L 18.109375 46.1875  Q 21.34375 51.125 25.703125 53.5625  Q 30.078125 56 35.796875 56  Q 45.21875 56 50.046875 50.171875  Q 54.890625 44.34375 54.890625 33.015625  z " id="DejaVuSans-110" />
     <path d="M 10.59375 45.40625  L 73.1875 45.40625  L 73.1875 37.203125  L 10.59375 37.203125  z M 10.59375 25.484375  L 73.1875 25.484375  L 73.1875 17.1875  L 10.59375 17.1875  z " id="DejaVuSans-61" />
     <path d="M 40.578125 39.3125  Q 47.65625 37.796875 51.625 33  Q 55.609375 28.21875 55.609375 21.1875  Q 55.609375 10.40625 48.1875 4.484375  Q 40.765625 -1.421875 27.09375 -1.421875  Q 22.515625 -1.421875 17.65625 -0.515625  Q 12.796875 0.390625 7.625 2.203125  L 7.625 11.71875  Q 11.71875 9.328125 16.59375 8.109375  Q 21.484375 6.890625 26.8125 6.890625  Q 36.078125 6.890625 40.9375 10.546875  Q 45.796875 14.203125 45.796875 21.1875  Q 45.796875 27.640625 41.28125 31.265625  Q 36.765625 34.90625 28.71875 34.90625  L 20.21875 34.90625  L 20.21875 43.015625  L 29.109375 43.015625  Q 36.375 43.015625 40.234375 45.921875  Q 44.09375 48.828125 44.09375 54.296875  Q 44.09375 59.90625 40.109375 62.90625  Q 36.140625 65.921875 28.71875 65.921875  Q 24.65625 65.921875 20.015625 65.03125  Q 15.375 64.15625 9.8125 62.3125  L 9.8125 71.09375  Q 15.4375 72.65625 20.34375 73.4375  Q 25.25 74.21875 29.59375 74.21875  Q 40.828125 74.21875 47.359375 69.109375  Q 53.90625 64.015625 53.90625 55.328125  Q 53.90625 49.265625 50.4375 45.09375  Q 46.96875 40.921875 40.578125 39.3125  z " id="DejaVuSans-51" />
     <path d="M 33.015625 40.375  Q 26.375 40.375 22.484375 35.828125  Q 18.609375 31.296875 18.609375 23.390625  Q 18.609375 15.53125 22.484375 10.953125  Q 26.375 6.390625 33.015625 6.390625  Q 39.65625 6.390625 43.53125 10.953125  Q 47.40625 15.53125 47.40625 23.390625  Q 47.40625 31.296875 43.53125 35.828125  Q 39.65625 40.375 33.015625 40.375  z M 52.59375 71.296875  L 52.59375 62.3125  Q 48.875 64.0625 45.09375 64.984375  Q 41.3125 65.921875 37.59375 65.921875  Q 27.828125 65.921875 22.671875 59.328125  Q 17.53125 52.734375 16.796875 39.40625  Q 19.671875 43.65625 24.015625 45.921875  Q 28.375 48.1875 33.59375 48.1875  Q 44.578125 48.1875 50.953125 41.515625  Q 57.328125 34.859375 57.328125 23.390625  Q 57.328125 12.15625 50.6875 5.359375  Q 44.046875 -1.421875 33.015625 -1.421875  Q 20.359375 -1.421875 13.671875 8.265625  Q 6.984375 17.96875 6.984375 36.375  Q 6.984375 53.65625 15.1875 63.9375  Q 23.390625 74.21875 37.203125 74.21875  Q 40.921875 74.21875 44.703125 73.484375  Q 48.484375 72.75 52.59375 71.296875  z " id="DejaVuSans-54" />
    </defs>
    <g style="fill:#444443;" transform="translate(13.925016 61.488514)scale(0.09 -0.09)">
     <use xlink:href="#DejaVuSans-110" />
     <use x="63.378906" xlink:href="#DejaVuSans-61" />
     <use x="147.167969" xlink:href="#DejaVuSans-51" />
     <use x="210.791016" xlink:href="#DejaVuSans-54" />
    </g>
    
    <defs>
     <path d="M 44.28125 53.078125  L 44.28125 44.578125  Q 40.484375 46.53125 36.375 47.5  Q 32.28125 48.484375 27.875 48.484375  Q 21.1875 48.484375 17.84375 46.4375  Q 14.5 44.390625 14.5 40.28125  Q 14.5 37.15625 16.890625 35.375  Q 19.28125 33.59375 26.515625 31.984375  L 29.59375 31.296875  Q 39.15625 29.25 43.1875 25.515625  Q 47.21875 21.78125 47.21875 15.09375  Q 47.21875 7.46875 41.1875 3.015625  Q 35.15625 -1.421875 24.609375 -1.421875  Q 20.21875 -1.421875 15.453125 -0.5625  Q 10.6875 0.296875 5.421875 2  L 5.421875 11.28125  Q 10.40625 8.6875 15.234375 7.390625  Q 20.0625 6.109375 24.8125 6.109375  Q 31.15625 6.109375 34.5625 8.28125  Q 37.984375 10.453125 37.984375 14.40625  Q 37.984375 18.0625 35.515625 20.015625  Q 33.0625 21.96875 24.703125 23.78125  L 21.578125 24.515625  Q 13.234375 26.265625 9.515625 29.90625  Q 5.8125 33.546875 5.8125 39.890625  Q 5.8125 47.609375 11.28125 51.796875  Q 16.75 56 26.8125 56  Q 31.78125 56 36.171875 55.265625  Q 40.578125 54.546875 44.28125 53.078125  z " id="DejaVuSans-115" />
     <path d="M 56.203125 29.59375  L 56.203125 25.203125  L 14.890625 25.203125  Q 15.484375 15.921875 20.484375 11.0625  Q 25.484375 6.203125 34.421875 6.203125  Q 39.59375 6.203125 44.453125 7.46875  Q 49.3125 8.734375 54.109375 11.28125  L 54.109375 2.78125  Q 49.265625 0.734375 44.1875 -0.34375  Q 39.109375 -1.421875 33.890625 -1.421875  Q 20.796875 -1.421875 13.15625 6.1875  Q 5.515625 13.8125 5.515625 26.8125  Q 5.515625 40.234375 12.765625 48.109375  Q 20.015625 56 32.328125 56  Q 43.359375 56 49.78125 48.890625  Q 56.203125 41.796875 56.203125 29.59375  z M 47.21875 32.234375  Q 47.125 39.59375 43.09375 43.984375  Q 39.0625 48.390625 32.421875 48.390625  Q 24.90625 48.390625 20.390625 44.140625  Q 15.875 39.890625 15.1875 32.171875  z " id="DejaVuSans-101" />
     <path d="M 18.3125 70.21875  L 18.3125 54.6875  L 36.8125 54.6875  L 36.8125 47.703125  L 18.3125 47.703125  L 18.3125 18.015625  Q 18.3125 11.328125 20.140625 9.421875  Q 21.96875 7.515625 27.59375 7.515625  L 36.8125 7.515625  L 36.8125 0  L 27.59375 0  Q 17.1875 0 13.234375 3.875  Q 9.28125 7.765625 9.28125 18.015625  L 9.28125 47.703125  L 2.6875 47.703125  L 2.6875 54.6875  L 9.28125 54.6875  L 9.28125 70.21875  z " id="DejaVuSans-116" />
     <path d="M 30.609375 48.390625  Q 23.390625 48.390625 19.1875 42.75  Q 14.984375 37.109375 14.984375 27.296875  Q 14.984375 17.484375 19.15625 11.84375  Q 23.34375 6.203125 30.609375 6.203125  Q 37.796875 6.203125 41.984375 11.859375  Q 46.1875 17.53125 46.1875 27.296875  Q 46.1875 37.015625 41.984375 42.703125  Q 37.796875 48.390625 30.609375 48.390625  z M 30.609375 56  Q 42.328125 56 49.015625 48.375  Q 55.71875 40.765625 55.71875 27.296875  Q 55.71875 13.875 49.015625 6.21875  Q 42.328125 -1.421875 30.609375 -1.421875  Q 18.84375 -1.421875 12.171875 6.21875  Q 5.515625 13.875 5.515625 27.296875  Q 5.515625 40.765625 12.171875 48.375  Q 18.84375 56 30.609375 56  z " id="DejaVuSans-111" />
     <path d="M 34.28125 27.484375  Q 23.390625 27.484375 19.1875 25  Q 14.984375 22.515625 14.984375 16.5  Q 14.984375 11.71875 18.140625 8.90625  Q 21.296875 6.109375 26.703125 6.109375  Q 34.1875 6.109375 38.703125 11.40625  Q 43.21875 16.703125 43.21875 25.484375  L 43.21875 27.484375  z M 52.203125 31.203125  L 52.203125 0  L 43.21875 0  L 43.21875 8.296875  Q 40.140625 3.328125 35.546875 0.953125  Q 30.953125 -1.421875 24.3125 -1.421875  Q 15.921875 -1.421875 10.953125 3.296875  Q 6 8.015625 6 15.921875  Q 6 25.140625 12.171875 29.828125  Q 18.359375 34.515625 30.609375 34.515625  L 43.21875 34.515625  L 43.21875 35.40625  Q 43.21875 41.609375 39.140625 45  Q 35.0625 48.390625 27.6875 48.390625  Q 23 48.390625 18.546875 47.265625  Q 14.109375 46.140625 10.015625 43.890625  L 10.015625 52.203125  Q 14.9375 54.109375 19.578125 55.046875  Q 24.21875 56 28.609375 56  Q 40.484375 56 46.34375 49.84375  Q 52.203125 43.703125 52.203125 31.203125  z " id="DejaVuSans-97" />
    </defs>
    <g style="fill:#444443;" transform="translate(11.541422 71.566545)scale(0.09 -0.09)">
     <use xlink:href="#DejaVuSans-115" />
     <use x="52.099609" xlink:href="#DejaVuSans-101" />
     <use x="113.623047" xlink:href="#DejaVuSans-116" />
     <use x="152.832031" xlink:href="#DejaVuSans-111" />
     <use x="214.013672" xlink:href="#DejaVuSans-115" />
     <use x="266.113281" xlink:href="#DejaVuSans-97" />
    </g>
   </g>
  </g>
 </g>
</svg></g>

<g class="edge" id="edge1"><title>node0-&gt;leaf1</title>
<path d="M73.7772,-115.377C71.1921,-103.803 68.0974,-89.9476 65.3039,-77.4403" fill="none" stroke="#444443" stroke-width="0.3" />
<polygon fill="#444443" points="66.6076,-76.8542 64.3693,-73.2556 63.8749,-77.4646 66.6076,-76.8542" stroke="#444443" stroke-width="0.3" />
<text font-family="Times,serif" font-size="14.00" text-anchor="start" x="71.5" y="-94.8">&lt;</text>
</g>

<g class="node" id="node3"><title>leaf2</title>
<polygon fill="none" points="162,-83 95,-83 95,-0 162,-0 162,-83" stroke="#444443" stroke-width="0" />
<svg height="75px" preserveAspectRatio="xMinYMin meet" version="1.1" viewBox="0 0 78.832506 100.852876" width="59px" x="99.5" y="-78.5">
 <defs>
  <style type="text/css">
*{stroke-linecap:butt;stroke-linejoin:round;}
  </style>
 </defs>
 <g id="figure_1">
  <g id="patch_1">
   <path d="M 0 100.852876  L 78.832506 100.852876  L 78.832506 0  L 0 0  z " style="fill:#ffffff;" />
  </g>
  <g id="axes_1">
   <g id="patch_2">
    <path d="M 78.832506 39.663732  C 78.832506 39.663732 78.832506 39.663732 78.832506 39.663732  L 39.572506 39.663732  L 78.832506 39.663732  z " style="fill:#fefebb;stroke:#444443;stroke-linejoin:miter;stroke-width:0.5;" />
   </g>
   <g id="patch_3">
    <path d="M 78.832506 39.663732  C 78.832506 29.551278 74.92541 19.819803 67.932516 12.51493  C 60.939622 5.210057 51.387834 0.882199 41.285004 0.441099  C 31.182175 0 21.289537 3.478896 13.686591 10.146501  C 6.083645 16.814105 1.343262 26.168023 0.461903 36.241996  L 39.572506 39.663732  L 78.832506 39.663732  z " style="fill:#d9e6f5;stroke:#444443;stroke-linejoin:miter;stroke-width:0.5;" />
   </g>
   <g id="patch_4">
    <path d="M 0.461903 36.241996  C 0 41.521565 0.611883 46.840406 2.260584 51.877169  C 3.909284 56.913932 6.560916 61.565096 10.055275 65.549648  C 13.549633 69.5342 17.814898 72.770246 22.593372 75.062272  C 27.371846 77.354297 32.565317 78.655194 37.860008 78.886366  C 43.1547 79.117537 48.441789 78.274231 53.401843 76.407399  C 58.361896 74.540567 62.892971 71.688578 66.721309 68.023742  C 70.549647 64.358906 73.596564 59.956546 75.677974 55.082643  C 77.759384 50.20874 78.832506 44.963468 78.832506 39.663732  L 39.572506 39.663732  L 0.461903 36.241996  z " style="fill:#a1dab4;stroke:#444443;stroke-linejoin:miter;stroke-width:0.5;" />
   </g>
   <g id="text_1">
    
    <defs>
     <path d="M 54.890625 33.015625  L 54.890625 0  L 45.90625 0  L 45.90625 32.71875  Q 45.90625 40.484375 42.875 44.328125  Q 39.84375 48.1875 33.796875 48.1875  Q 26.515625 48.1875 22.3125 43.546875  Q 18.109375 38.921875 18.109375 30.90625  L 18.109375 0  L 9.078125 0  L 9.078125 54.6875  L 18.109375 54.6875  L 18.109375 46.1875  Q 21.34375 51.125 25.703125 53.5625  Q 30.078125 56 35.796875 56  Q 45.21875 56 50.046875 50.171875  Q 54.890625 44.34375 54.890625 33.015625  z " id="DejaVuSans-110" />
     <path d="M 10.59375 45.40625  L 73.1875 45.40625  L 73.1875 37.203125  L 10.59375 37.203125  z M 10.59375 25.484375  L 73.1875 25.484375  L 73.1875 17.1875  L 10.59375 17.1875  z " id="DejaVuSans-61" />
     <path d="M 8.203125 72.90625  L 55.078125 72.90625  L 55.078125 68.703125  L 28.609375 0  L 18.3125 0  L 43.21875 64.59375  L 8.203125 64.59375  z " id="DejaVuSans-55" />
     <path d="M 19.1875 8.296875  L 53.609375 8.296875  L 53.609375 0  L 7.328125 0  L 7.328125 8.296875  Q 12.9375 14.109375 22.625 23.890625  Q 32.328125 33.6875 34.8125 36.53125  Q 39.546875 41.84375 41.421875 45.53125  Q 43.3125 49.21875 43.3125 52.78125  Q 43.3125 58.59375 39.234375 62.25  Q 35.15625 65.921875 28.609375 65.921875  Q 23.96875 65.921875 18.8125 64.3125  Q 13.671875 62.703125 7.8125 59.421875  L 7.8125 69.390625  Q 13.765625 71.78125 18.9375 73  Q 24.125 74.21875 28.421875 74.21875  Q 39.75 74.21875 46.484375 68.546875  Q 53.21875 62.890625 53.21875 53.421875  Q 53.21875 48.921875 51.53125 44.890625  Q 49.859375 40.875 45.40625 35.40625  Q 44.1875 33.984375 37.640625 27.21875  Q 31.109375 20.453125 19.1875 8.296875  z " id="DejaVuSans-50" />
    </defs>
    <g style="fill:#444443;" transform="translate(27.223522 88.903126)scale(0.09 -0.09)">
     <use xlink:href="#DejaVuSans-110" />
     <use x="63.378906" xlink:href="#DejaVuSans-61" />
     <use x="147.167969" xlink:href="#DejaVuSans-55" />
     <use x="210.791016" xlink:href="#DejaVuSans-50" />
    </g>
    
    <defs>
     <path d="M 2.984375 54.6875  L 12.5 54.6875  L 29.59375 8.796875  L 46.6875 54.6875  L 56.203125 54.6875  L 35.6875 0  L 23.484375 0  z " id="DejaVuSans-118" />
     <path d="M 9.421875 54.6875  L 18.40625 54.6875  L 18.40625 0  L 9.421875 0  z M 9.421875 75.984375  L 18.40625 75.984375  L 18.40625 64.59375  L 9.421875 64.59375  z " id="DejaVuSans-105" />
     <path d="M 41.109375 46.296875  Q 39.59375 47.171875 37.8125 47.578125  Q 36.03125 48 33.890625 48  Q 26.265625 48 22.1875 43.046875  Q 18.109375 38.09375 18.109375 28.8125  L 18.109375 0  L 9.078125 0  L 9.078125 54.6875  L 18.109375 54.6875  L 18.109375 46.1875  Q 20.953125 51.171875 25.484375 53.578125  Q 30.03125 56 36.53125 56  Q 37.453125 56 38.578125 55.875  Q 39.703125 55.765625 41.0625 55.515625  z " id="DejaVuSans-114" />
     <path d="M 45.40625 27.984375  Q 45.40625 37.75 41.375 43.109375  Q 37.359375 48.484375 30.078125 48.484375  Q 22.859375 48.484375 18.828125 43.109375  Q 14.796875 37.75 14.796875 27.984375  Q 14.796875 18.265625 18.828125 12.890625  Q 22.859375 7.515625 30.078125 7.515625  Q 37.359375 7.515625 41.375 12.890625  Q 45.40625 18.265625 45.40625 27.984375  z M 54.390625 6.78125  Q 54.390625 -7.171875 48.1875 -13.984375  Q 42 -20.796875 29.203125 -20.796875  Q 24.46875 -20.796875 20.265625 -20.09375  Q 16.0625 -19.390625 12.109375 -17.921875  L 12.109375 -9.1875  Q 16.0625 -11.328125 19.921875 -12.34375  Q 23.78125 -13.375 27.78125 -13.375  Q 36.625 -13.375 41.015625 -8.765625  Q 45.40625 -4.15625 45.40625 5.171875  L 45.40625 9.625  Q 42.625 4.78125 38.28125 2.390625  Q 33.9375 0 27.875 0  Q 17.828125 0 11.671875 7.65625  Q 5.515625 15.328125 5.515625 27.984375  Q 5.515625 40.671875 11.671875 48.328125  Q 17.828125 56 27.875 56  Q 33.9375 56 38.28125 53.609375  Q 42.625 51.21875 45.40625 46.390625  L 45.40625 54.6875  L 54.390625 54.6875  z " id="DejaVuSans-103" />
     <path d="M 48.78125 52.59375  L 48.78125 44.1875  Q 44.96875 46.296875 41.140625 47.34375  Q 37.3125 48.390625 33.40625 48.390625  Q 24.65625 48.390625 19.8125 42.84375  Q 14.984375 37.3125 14.984375 27.296875  Q 14.984375 17.28125 19.8125 11.734375  Q 24.65625 6.203125 33.40625 6.203125  Q 37.3125 6.203125 41.140625 7.25  Q 44.96875 8.296875 48.78125 10.40625  L 48.78125 2.09375  Q 45.015625 0.34375 40.984375 -0.53125  Q 36.96875 -1.421875 32.421875 -1.421875  Q 20.0625 -1.421875 12.78125 6.34375  Q 5.515625 14.109375 5.515625 27.296875  Q 5.515625 40.671875 12.859375 48.328125  Q 20.21875 56 33.015625 56  Q 37.15625 56 41.109375 55.140625  Q 45.0625 54.296875 48.78125 52.59375  z " id="DejaVuSans-99" />
     <path d="M 34.28125 27.484375  Q 23.390625 27.484375 19.1875 25  Q 14.984375 22.515625 14.984375 16.5  Q 14.984375 11.71875 18.140625 8.90625  Q 21.296875 6.109375 26.703125 6.109375  Q 34.1875 6.109375 38.703125 11.40625  Q 43.21875 16.703125 43.21875 25.484375  L 43.21875 27.484375  z M 52.203125 31.203125  L 52.203125 0  L 43.21875 0  L 43.21875 8.296875  Q 40.140625 3.328125 35.546875 0.953125  Q 30.953125 -1.421875 24.3125 -1.421875  Q 15.921875 -1.421875 10.953125 3.296875  Q 6 8.015625 6 15.921875  Q 6 25.140625 12.171875 29.828125  Q 18.359375 34.515625 30.609375 34.515625  L 43.21875 34.515625  L 43.21875 35.40625  Q 43.21875 41.609375 39.140625 45  Q 35.0625 48.390625 27.6875 48.390625  Q 23 48.390625 18.546875 47.265625  Q 14.109375 46.140625 10.015625 43.890625  L 10.015625 52.203125  Q 14.9375 54.109375 19.578125 55.046875  Q 24.21875 56 28.609375 56  Q 40.484375 56 46.34375 49.84375  Q 52.203125 43.703125 52.203125 31.203125  z " id="DejaVuSans-97" />
    </defs>
    <g style="fill:#444443;" transform="translate(20.446803 98.981157)scale(0.09 -0.09)">
     <use xlink:href="#DejaVuSans-118" />
     <use x="59.179688" xlink:href="#DejaVuSans-105" />
     <use x="86.962891" xlink:href="#DejaVuSans-114" />
     <use x="126.326172" xlink:href="#DejaVuSans-103" />
     <use x="189.802734" xlink:href="#DejaVuSans-105" />
     <use x="217.585938" xlink:href="#DejaVuSans-110" />
     <use x="280.964844" xlink:href="#DejaVuSans-105" />
     <use x="308.748047" xlink:href="#DejaVuSans-99" />
     <use x="363.728516" xlink:href="#DejaVuSans-97" />
    </g>
   </g>
  </g>
 </g>
</svg></g>

<g class="edge" id="edge2"><title>node0-&gt;leaf2</title>
<path d="M92.2463,-115.377C96.5901,-106.645 101.58,-96.6147 106.44,-86.8442" fill="none" stroke="#444443" stroke-width="0.3" />
<polygon fill="#444443" points="107.696,-87.4641 108.224,-83.2592 105.189,-86.2169 107.696,-87.4641" stroke="#444443" stroke-width="0.3" />
<text font-family="Times,serif" font-size="14.00" text-anchor="start" x="104.5" y="-94.8">&#8805;</text>
</g>


<g class="node" id="node4"><title>legend</title>
<polygon fill="none" points="235.5,-170 165.5,-170 165.5,-114 235.5,-114 235.5,-170" stroke="black" stroke-width="0" />
<svg height="52px" preserveAspectRatio="xMinYMin meet" version="1.1" viewBox="0 0 88.295312 69.790625" width="66px" x="167.5" y="-168">
 <defs>
  <style type="text/css">
*{stroke-linecap:butt;stroke-linejoin:round;}
  </style>
 </defs>
 <g id="figure_1">
  <g id="patch_1">
   <path d="M 0 69.790625  L 88.295312 69.790625  L 88.295312 0  L 0 0  z " style="fill:#ffffff;" />
  </g>
  <g id="axes_1">
   <g id="legend_1">
    <g id="patch_2">
     <path d="M 2 69.790625  L 86.295312 69.790625  Q 88.295312 69.790625 88.295312 67.790625  L 88.295312 2  Q 88.295312 -0 86.295312 -0  L 2 -0  Q -0 -0 -0 2  L -0 67.790625  Q -0 69.790625 2 69.790625  z " style="fill:#ffffff;opacity:0.8;stroke:#444443;stroke-linejoin:miter;stroke-width:0.5;" />
    </g>
    <g id="text_1">
     
     <defs>
      <path d="M 27.484375 70.21875  L 27.484375 54.6875  L 45.515625 54.6875  L 45.515625 42.1875  L 27.484375 42.1875  L 27.484375 19  Q 27.484375 15.1875 29 13.84375  Q 30.515625 12.5 35.015625 12.5  L 44 12.5  L 44 0  L 29 0  Q 18.65625 0 14.328125 4.3125  Q 10.015625 8.640625 10.015625 19  L 10.015625 42.1875  L 1.3125 42.1875  L 1.3125 54.6875  L 10.015625 54.6875  L 10.015625 70.21875  z " id="DejaVuSans-Bold-116" />
      <path d="M 32.90625 24.609375  Q 27.4375 24.609375 24.671875 22.75  Q 21.921875 20.90625 21.921875 17.28125  Q 21.921875 13.96875 24.140625 12.078125  Q 26.375 10.203125 30.328125 10.203125  Q 35.25 10.203125 38.625 13.734375  Q 42 17.28125 42 22.609375  L 42 24.609375  z M 59.625 31.203125  L 59.625 0  L 42 0  L 42 8.109375  Q 38.484375 3.125 34.078125 0.84375  Q 29.6875 -1.421875 23.390625 -1.421875  Q 14.890625 -1.421875 9.59375 3.53125  Q 4.296875 8.5 4.296875 16.40625  Q 4.296875 26.03125 10.90625 30.515625  Q 17.53125 35.015625 31.6875 35.015625  L 42 35.015625  L 42 36.375  Q 42 40.53125 38.71875 42.453125  Q 35.453125 44.390625 28.515625 44.390625  Q 22.90625 44.390625 18.0625 43.265625  Q 13.234375 42.140625 9.078125 39.890625  L 9.078125 53.21875  Q 14.703125 54.59375 20.359375 55.296875  Q 26.03125 56 31.6875 56  Q 46.484375 56 53.046875 50.171875  Q 59.625 44.34375 59.625 31.203125  z " id="DejaVuSans-Bold-97" />
      <path d="M 49.03125 39.796875  Q 46.734375 40.875 44.453125 41.375  Q 42.1875 41.890625 39.890625 41.890625  Q 33.15625 41.890625 29.515625 37.5625  Q 25.875 33.25 25.875 25.203125  L 25.875 0  L 8.40625 0  L 8.40625 54.6875  L 25.875 54.6875  L 25.875 45.703125  Q 29.25 51.078125 33.609375 53.53125  Q 37.984375 56 44.09375 56  Q 44.96875 56 45.984375 55.921875  Q 47.015625 55.859375 48.96875 55.609375  z " id="DejaVuSans-Bold-114" />
      <path d="M 45.609375 9.28125  Q 42 4.5 37.640625 2.25  Q 33.296875 0 27.59375 0  Q 17.578125 0 11.03125 7.875  Q 4.5 15.765625 4.5 27.984375  Q 4.5 40.234375 11.03125 48.0625  Q 17.578125 55.90625 27.59375 55.90625  Q 33.296875 55.90625 37.640625 53.65625  Q 42 51.421875 45.609375 46.578125  L 45.609375 54.6875  L 63.1875 54.6875  L 63.1875 5.515625  Q 63.1875 -7.671875 54.859375 -14.625  Q 46.53125 -21.578125 30.71875 -21.578125  Q 25.59375 -21.578125 20.796875 -20.796875  Q 16.015625 -20.015625 11.1875 -18.40625  L 11.1875 -4.78125  Q 15.765625 -7.421875 20.15625 -8.71875  Q 24.5625 -10.015625 29 -10.015625  Q 37.59375 -10.015625 41.59375 -6.25  Q 45.609375 -2.484375 45.609375 5.515625  z M 34.078125 43.3125  Q 28.65625 43.3125 25.625 39.296875  Q 22.609375 35.296875 22.609375 27.984375  Q 22.609375 20.453125 25.53125 16.578125  Q 28.46875 12.703125 34.078125 12.703125  Q 39.546875 12.703125 42.578125 16.703125  Q 45.609375 20.703125 45.609375 27.984375  Q 45.609375 35.296875 42.578125 39.296875  Q 39.546875 43.3125 34.078125 43.3125  z " id="DejaVuSans-Bold-103" />
      <path d="M 62.984375 27.484375  L 62.984375 22.515625  L 22.125 22.515625  Q 22.75 16.359375 26.5625 13.28125  Q 30.375 10.203125 37.203125 10.203125  Q 42.71875 10.203125 48.5 11.84375  Q 54.296875 13.484375 60.40625 16.796875  L 60.40625 3.328125  Q 54.203125 0.984375 48 -0.21875  Q 41.796875 -1.421875 35.59375 -1.421875  Q 20.75 -1.421875 12.515625 6.125  Q 4.296875 13.671875 4.296875 27.296875  Q 4.296875 40.671875 12.375 48.328125  Q 20.453125 56 34.625 56  Q 47.515625 56 55.25 48.234375  Q 62.984375 40.484375 62.984375 27.484375  z M 45.015625 33.296875  Q 45.015625 38.28125 42.109375 41.328125  Q 39.203125 44.390625 34.515625 44.390625  Q 29.4375 44.390625 26.265625 41.53125  Q 23.09375 38.671875 22.3125 33.296875  z " id="DejaVuSans-Bold-101" />
     </defs>
     <g style="fill:#444443;" transform="translate(26.557812 15.598437)scale(0.1 -0.1)">
      <use xlink:href="#DejaVuSans-Bold-116" />
      <use x="47.802734" xlink:href="#DejaVuSans-Bold-97" />
      <use x="115.283203" xlink:href="#DejaVuSans-Bold-114" />
      <use x="164.599609" xlink:href="#DejaVuSans-Bold-103" />
      <use x="236.181641" xlink:href="#DejaVuSans-Bold-101" />
      <use x="304.003906" xlink:href="#DejaVuSans-Bold-116" />
     </g>
    </g>
    <g id="patch_3">
     <path d="M 8 30.354687  L 28 30.354687  L 28 23.354687  L 8 23.354687  z " style="fill:#fefebb;stroke:#444443;stroke-linejoin:miter;stroke-width:0.4;" />
    </g>
    <g id="text_2">
     
     <defs>
      <path d="M 44.28125 53.078125  L 44.28125 44.578125  Q 40.484375 46.53125 36.375 47.5  Q 32.28125 48.484375 27.875 48.484375  Q 21.1875 48.484375 17.84375 46.4375  Q 14.5 44.390625 14.5 40.28125  Q 14.5 37.15625 16.890625 35.375  Q 19.28125 33.59375 26.515625 31.984375  L 29.59375 31.296875  Q 39.15625 29.25 43.1875 25.515625  Q 47.21875 21.78125 47.21875 15.09375  Q 47.21875 7.46875 41.1875 3.015625  Q 35.15625 -1.421875 24.609375 -1.421875  Q 20.21875 -1.421875 15.453125 -0.5625  Q 10.6875 0.296875 5.421875 2  L 5.421875 11.28125  Q 10.40625 8.6875 15.234375 7.390625  Q 20.0625 6.109375 24.8125 6.109375  Q 31.15625 6.109375 34.5625 8.28125  Q 37.984375 10.453125 37.984375 14.40625  Q 37.984375 18.0625 35.515625 20.015625  Q 33.0625 21.96875 24.703125 23.78125  L 21.578125 24.515625  Q 13.234375 26.265625 9.515625 29.90625  Q 5.8125 33.546875 5.8125 39.890625  Q 5.8125 47.609375 11.28125 51.796875  Q 16.75 56 26.8125 56  Q 31.78125 56 36.171875 55.265625  Q 40.578125 54.546875 44.28125 53.078125  z " id="DejaVuSans-115" />
      <path d="M 56.203125 29.59375  L 56.203125 25.203125  L 14.890625 25.203125  Q 15.484375 15.921875 20.484375 11.0625  Q 25.484375 6.203125 34.421875 6.203125  Q 39.59375 6.203125 44.453125 7.46875  Q 49.3125 8.734375 54.109375 11.28125  L 54.109375 2.78125  Q 49.265625 0.734375 44.1875 -0.34375  Q 39.109375 -1.421875 33.890625 -1.421875  Q 20.796875 -1.421875 13.15625 6.1875  Q 5.515625 13.8125 5.515625 26.8125  Q 5.515625 40.234375 12.765625 48.109375  Q 20.015625 56 32.328125 56  Q 43.359375 56 49.78125 48.890625  Q 56.203125 41.796875 56.203125 29.59375  z M 47.21875 32.234375  Q 47.125 39.59375 43.09375 43.984375  Q 39.0625 48.390625 32.421875 48.390625  Q 24.90625 48.390625 20.390625 44.140625  Q 15.875 39.890625 15.1875 32.171875  z " id="DejaVuSans-101" />
      <path d="M 18.3125 70.21875  L 18.3125 54.6875  L 36.8125 54.6875  L 36.8125 47.703125  L 18.3125 47.703125  L 18.3125 18.015625  Q 18.3125 11.328125 20.140625 9.421875  Q 21.96875 7.515625 27.59375 7.515625  L 36.8125 7.515625  L 36.8125 0  L 27.59375 0  Q 17.1875 0 13.234375 3.875  Q 9.28125 7.765625 9.28125 18.015625  L 9.28125 47.703125  L 2.6875 47.703125  L 2.6875 54.6875  L 9.28125 54.6875  L 9.28125 70.21875  z " id="DejaVuSans-116" />
      <path d="M 30.609375 48.390625  Q 23.390625 48.390625 19.1875 42.75  Q 14.984375 37.109375 14.984375 27.296875  Q 14.984375 17.484375 19.15625 11.84375  Q 23.34375 6.203125 30.609375 6.203125  Q 37.796875 6.203125 41.984375 11.859375  Q 46.1875 17.53125 46.1875 27.296875  Q 46.1875 37.015625 41.984375 42.703125  Q 37.796875 48.390625 30.609375 48.390625  z M 30.609375 56  Q 42.328125 56 49.015625 48.375  Q 55.71875 40.765625 55.71875 27.296875  Q 55.71875 13.875 49.015625 6.21875  Q 42.328125 -1.421875 30.609375 -1.421875  Q 18.84375 -1.421875 12.171875 6.21875  Q 5.515625 13.875 5.515625 27.296875  Q 5.515625 40.765625 12.171875 48.375  Q 18.84375 56 30.609375 56  z " id="DejaVuSans-111" />
      <path d="M 34.28125 27.484375  Q 23.390625 27.484375 19.1875 25  Q 14.984375 22.515625 14.984375 16.5  Q 14.984375 11.71875 18.140625 8.90625  Q 21.296875 6.109375 26.703125 6.109375  Q 34.1875 6.109375 38.703125 11.40625  Q 43.21875 16.703125 43.21875 25.484375  L 43.21875 27.484375  z M 52.203125 31.203125  L 52.203125 0  L 43.21875 0  L 43.21875 8.296875  Q 40.140625 3.328125 35.546875 0.953125  Q 30.953125 -1.421875 24.3125 -1.421875  Q 15.921875 -1.421875 10.953125 3.296875  Q 6 8.015625 6 15.921875  Q 6 25.140625 12.171875 29.828125  Q 18.359375 34.515625 30.609375 34.515625  L 43.21875 34.515625  L 43.21875 35.40625  Q 43.21875 41.609375 39.140625 45  Q 35.0625 48.390625 27.6875 48.390625  Q 23 48.390625 18.546875 47.265625  Q 14.109375 46.140625 10.015625 43.890625  L 10.015625 52.203125  Q 14.9375 54.109375 19.578125 55.046875  Q 24.21875 56 28.609375 56  Q 40.484375 56 46.34375 49.84375  Q 52.203125 43.703125 52.203125 31.203125  z " id="DejaVuSans-97" />
     </defs>
     <g style="fill:#444443;" transform="translate(31.5 30.354687)scale(0.1 -0.1)">
      <use xlink:href="#DejaVuSans-115" />
      <use x="52.099609" xlink:href="#DejaVuSans-101" />
      <use x="113.623047" xlink:href="#DejaVuSans-116" />
      <use x="152.832031" xlink:href="#DejaVuSans-111" />
      <use x="214.013672" xlink:href="#DejaVuSans-115" />
      <use x="266.113281" xlink:href="#DejaVuSans-97" />
     </g>
    </g>
    <g id="patch_4">
     <path d="M 8 45.032812  L 28 45.032812  L 28 38.032812  L 8 38.032812  z " style="fill:#d9e6f5;stroke:#444443;stroke-linejoin:miter;stroke-width:0.4;" />
    </g>
    <g id="text_3">
     
     <defs>
      <path d="M 2.984375 54.6875  L 12.5 54.6875  L 29.59375 8.796875  L 46.6875 54.6875  L 56.203125 54.6875  L 35.6875 0  L 23.484375 0  z " id="DejaVuSans-118" />
      <path d="M 41.109375 46.296875  Q 39.59375 47.171875 37.8125 47.578125  Q 36.03125 48 33.890625 48  Q 26.265625 48 22.1875 43.046875  Q 18.109375 38.09375 18.109375 28.8125  L 18.109375 0  L 9.078125 0  L 9.078125 54.6875  L 18.109375 54.6875  L 18.109375 46.1875  Q 20.953125 51.171875 25.484375 53.578125  Q 30.03125 56 36.53125 56  Q 37.453125 56 38.578125 55.875  Q 39.703125 55.765625 41.0625 55.515625  z " id="DejaVuSans-114" />
      <path d="M 9.421875 54.6875  L 18.40625 54.6875  L 18.40625 0  L 9.421875 0  z M 9.421875 75.984375  L 18.40625 75.984375  L 18.40625 64.59375  L 9.421875 64.59375  z " id="DejaVuSans-105" />
      <path d="M 48.78125 52.59375  L 48.78125 44.1875  Q 44.96875 46.296875 41.140625 47.34375  Q 37.3125 48.390625 33.40625 48.390625  Q 24.65625 48.390625 19.8125 42.84375  Q 14.984375 37.3125 14.984375 27.296875  Q 14.984375 17.28125 19.8125 11.734375  Q 24.65625 6.203125 33.40625 6.203125  Q 37.3125 6.203125 41.140625 7.25  Q 44.96875 8.296875 48.78125 10.40625  L 48.78125 2.09375  Q 45.015625 0.34375 40.984375 -0.53125  Q 36.96875 -1.421875 32.421875 -1.421875  Q 20.0625 -1.421875 12.78125 6.34375  Q 5.515625 14.109375 5.515625 27.296875  Q 5.515625 40.671875 12.859375 48.328125  Q 20.21875 56 33.015625 56  Q 37.15625 56 41.109375 55.140625  Q 45.0625 54.296875 48.78125 52.59375  z " id="DejaVuSans-99" />
      <path d="M 9.421875 75.984375  L 18.40625 75.984375  L 18.40625 0  L 9.421875 0  z " id="DejaVuSans-108" />
     </defs>
     <g style="fill:#444443;" transform="translate(31.5 45.032812)scale(0.1 -0.1)">
      <use xlink:href="#DejaVuSans-118" />
      <use x="59.179688" xlink:href="#DejaVuSans-101" />
      <use x="120.703125" xlink:href="#DejaVuSans-114" />
      <use x="161.816406" xlink:href="#DejaVuSans-115" />
      <use x="213.916016" xlink:href="#DejaVuSans-105" />
      <use x="241.699219" xlink:href="#DejaVuSans-99" />
      <use x="296.679688" xlink:href="#DejaVuSans-111" />
      <use x="357.861328" xlink:href="#DejaVuSans-108" />
      <use x="385.644531" xlink:href="#DejaVuSans-111" />
      <use x="446.826172" xlink:href="#DejaVuSans-114" />
     </g>
    </g>
    <g id="patch_5">
     <path d="M 8 59.710937  L 28 59.710937  L 28 52.710937  L 8 52.710937  z " style="fill:#a1dab4;stroke:#444443;stroke-linejoin:miter;stroke-width:0.4;" />
    </g>
    <g id="text_4">
     
     <defs>
      <path d="M 45.40625 27.984375  Q 45.40625 37.75 41.375 43.109375  Q 37.359375 48.484375 30.078125 48.484375  Q 22.859375 48.484375 18.828125 43.109375  Q 14.796875 37.75 14.796875 27.984375  Q 14.796875 18.265625 18.828125 12.890625  Q 22.859375 7.515625 30.078125 7.515625  Q 37.359375 7.515625 41.375 12.890625  Q 45.40625 18.265625 45.40625 27.984375  z M 54.390625 6.78125  Q 54.390625 -7.171875 48.1875 -13.984375  Q 42 -20.796875 29.203125 -20.796875  Q 24.46875 -20.796875 20.265625 -20.09375  Q 16.0625 -19.390625 12.109375 -17.921875  L 12.109375 -9.1875  Q 16.0625 -11.328125 19.921875 -12.34375  Q 23.78125 -13.375 27.78125 -13.375  Q 36.625 -13.375 41.015625 -8.765625  Q 45.40625 -4.15625 45.40625 5.171875  L 45.40625 9.625  Q 42.625 4.78125 38.28125 2.390625  Q 33.9375 0 27.875 0  Q 17.828125 0 11.671875 7.65625  Q 5.515625 15.328125 5.515625 27.984375  Q 5.515625 40.671875 11.671875 48.328125  Q 17.828125 56 27.875 56  Q 33.9375 56 38.28125 53.609375  Q 42.625 51.21875 45.40625 46.390625  L 45.40625 54.6875  L 54.390625 54.6875  z " id="DejaVuSans-103" />
      <path d="M 54.890625 33.015625  L 54.890625 0  L 45.90625 0  L 45.90625 32.71875  Q 45.90625 40.484375 42.875 44.328125  Q 39.84375 48.1875 33.796875 48.1875  Q 26.515625 48.1875 22.3125 43.546875  Q 18.109375 38.921875 18.109375 30.90625  L 18.109375 0  L 9.078125 0  L 9.078125 54.6875  L 18.109375 54.6875  L 18.109375 46.1875  Q 21.34375 51.125 25.703125 53.5625  Q 30.078125 56 35.796875 56  Q 45.21875 56 50.046875 50.171875  Q 54.890625 44.34375 54.890625 33.015625  z " id="DejaVuSans-110" />
     </defs>
     <g style="fill:#444443;" transform="translate(31.5 59.710937)scale(0.1 -0.1)">
      <use xlink:href="#DejaVuSans-118" />
      <use x="59.179688" xlink:href="#DejaVuSans-105" />
      <use x="86.962891" xlink:href="#DejaVuSans-114" />
      <use x="126.326172" xlink:href="#DejaVuSans-103" />
      <use x="189.802734" xlink:href="#DejaVuSans-105" />
      <use x="217.585938" xlink:href="#DejaVuSans-110" />
      <use x="280.964844" xlink:href="#DejaVuSans-105" />
      <use x="308.748047" xlink:href="#DejaVuSans-99" />
      <use x="363.728516" xlink:href="#DejaVuSans-97" />
     </g>
    </g>
   </g>
  </g>
 </g>
</svg></g>
</g>
</svg>